<svg id="Layor_1" data-name="Layor_1" xmlns="http://www.w3.org/2000/svg" xmlns:xlink="http://www.w3.org/1999/xlink" viewBox="0 0 110 110" style="enable-background:new 0 0 110 110">
  <defs>
    <style>
      .cls-1, .cls-4, .cls-6 {
        fill: none;
      }

      .cls-2 {
        clip-path: url(#clip-path);
      }

      .cls-3 {
        fill: #1c1d1d;
      }

      .cls-4, .cls-6 {
        stroke: #1c1d1d;
        stroke-linejoin: round;
      }

      .cls-4 {
        stroke-width: 2.947px;
      }

      .cls-5 {
        fill: #fff;
      }

      .cls-6 {
        stroke-width: 1.965px;
      }

      .cls-7 {
        stroke: #f29600;
        fill: url(#名称未設定グラデーション_432);
      }

      .cls-10, .cls-11, .cls-7, .cls-8, .cls-9 {
        stroke-miterlimit: 10;
      }

      .cls-10, .cls-7, .cls-8, .cls-9 {
        stroke-width: 4px;
      }

      .cls-8 {
        stroke: #009fe8;
        fill: url(#名称未設定グラデーション_432-2);
      }

      .cls-9 {
        stroke: #e50012;
        fill: url(#名称未設定グラデーション_432-3);
      }

      .cls-10 {
        stroke: #e51f60;
        fill: url(#名称未設定グラデーション_432-4);
      }

      .cls-11 {
        stroke: #95c646;
        stroke-width: 14px;
        fill: url(#名称未設定グラデーション_432-5);
      }
    </style>
    <clipPath id="clip-path">
      <rect class="cls-1" x="-5.884" y="-7.669" width="121.769" height="125.337" transform="translate(-3.06 3.24) rotate(-3.283)"/>
    </clipPath>
    <linearGradient id="名称未設定グラデーション_432" data-name="名称未設定グラデーション 432" x1="26.817" y1="31.911" x2="50.766" y2="31.911" gradientUnits="userSpaceOnUse">
      <stop offset="0.574" stop-color="#1a0b08" stop-opacity="0"/>
      <stop offset="0.777" stop-color="#1a0b08" stop-opacity="0.579"/>
      <stop offset="0.798" stop-color="#1a0b08" stop-opacity="0.651"/>
      <stop offset="0.848" stop-color="#1a0b08" stop-opacity="0.771"/>
      <stop offset="1" stop-color="#1a0b08" stop-opacity="0.95"/>
    </linearGradient>
    <linearGradient id="名称未設定グラデーション_432-2" x1="24.92" y1="40.974" x2="81.763" y2="40.974" xlink:href="#名称未設定グラデーション_432"/>
    <linearGradient id="名称未設定グラデーション_432-3" x1="27.949" y1="51.642" x2="51.898" y2="51.642" xlink:href="#名称未設定グラデーション_432"/>
    <linearGradient id="名称未設定グラデーション_432-4" x1="28.413" y1="59.746" x2="52.363" y2="59.746" xlink:href="#名称未設定グラデーション_432"/>
    <linearGradient id="名称未設定グラデーション_432-5" x1="27.207" y1="73.651" x2="84.051" y2="73.651" xlink:href="#名称未設定グラデーション_432"/>
  </defs>
  <g>
    <g class="cls-2">
      <g>
        <path class="cls-3" d="M64.187,19.978C32.158,21.731,9.329,32.143,10.6,57.13c.911,17.965,8.529,28.7,20.5,34.816-1.306,6.039-2.257,8.927-7.844,11.37,6.767.369,15.14-2.411,19.831-7.03A108.466,108.466,0,0,0,65.8,99.039c30.771.876,38.058-16.021,40.287-34.685s-9.868-46.129-41.9-44.376Z"/>
        <path class="cls-4" d="M64.187,19.978C32.158,21.731,9.329,32.143,10.6,57.13c.911,17.965,8.529,28.7,20.5,34.816-1.306,6.039-2.257,8.927-7.844,11.37,6.767.369,15.14-2.411,19.831-7.03A108.466,108.466,0,0,0,65.8,99.039c30.771.876,38.058-16.021,40.287-34.685s-9.868-46.129-41.9-44.376Z"/>
        <path class="cls-5" d="M59.386,14.892C27.357,16.645,4.529,27.058,5.8,52.044c.912,17.966,8.529,28.7,20.5,34.817-1.306,6.038-2.257,8.927-7.844,11.369,6.767.37,15.14-2.411,19.832-7.031A108.318,108.318,0,0,0,61,93.954c30.771.875,38.059-16.022,40.287-34.686s-9.868-46.129-41.9-44.376Z"/>
        <path class="cls-6" d="M59.386,14.892C27.357,16.645,4.529,27.058,5.8,52.044c.912,17.966,8.529,28.7,20.5,34.817-1.306,6.038-2.257,8.927-7.844,11.369,6.767.37,15.14-2.411,19.832-7.031A108.318,108.318,0,0,0,61,93.954c30.771.875,38.059-16.022,40.287-34.686s-9.868-46.129-41.9-44.376Z"/>
      </g>
      <ellipse class="cls-1" cx="54.924" cy="53.678" rx="60.884" ry="71.054" transform="translate(-2.984 3.234) rotate(-3.283)"/>
    </g>
    <line class="cls-7" x1="26.817" y1="32.777" x2="50.766" y2="31.044"/>
    <line class="cls-8" x1="24.92" y1="42.964" x2="81.763" y2="38.985"/>
    <line class="cls-9" x1="27.949" y1="52.508" x2="51.898" y2="50.775"/>
    <line class="cls-10" x1="28.413" y1="60.612" x2="52.363" y2="58.879"/>
    <line class="cls-11" x1="27.207" y1="75.64" x2="84.051" y2="71.661"/>
  </g>
</svg>
